<svg width="251" height="253" viewBox="0 0 251 253" fill="none" xmlns="http://www.w3.org/2000/svg">
<g clip-path="url(#clip0_2002_2)">
<path d="M60.4682 157.973C93.8639 157.973 120.936 128.964 120.936 93.1801C120.936 57.396 93.8639 28.3872 60.4682 28.3872C27.0725 28.3872 0 57.396 0 93.1801C0 128.964 27.0725 157.973 60.4682 157.973Z" fill="#171E2D"/>
<path d="M184.827 138.225C221.373 138.225 251 107.282 251 69.1124C251 30.9427 221.373 0 184.827 0C148.281 0 118.654 30.9427 118.654 69.1124C118.654 107.282 148.281 138.225 184.827 138.225Z" fill="#171E2D"/>
<path d="M172.277 253C193.701 253 211.068 233.937 211.068 210.422C211.068 186.907 193.701 167.844 172.277 167.844C150.853 167.844 133.486 186.907 133.486 210.422C133.486 233.937 150.853 253 172.277 253Z" fill="#171E2D"/>
</g>
<defs>
<clipPath id="clip0_2002_2">
<rect width="251" height="253" fill="white"/>
</clipPath>
</defs>
</svg>
